#!OML:ASF E:\Mandelcareful walks\Project 1\Capture day 1\Session 1\Subject1.ASF
:FULLY-SPECIFIED
:DEGREES
2042
root 16.7912 16.8291 5.37659 1020.72 88.7727 1016.62
lowerback -5.12859 3.23041 2.20621
upperback 1.44646 4.14115 0.583385
thorax 4.48252 2.10745 -0.256866
lowerneck -24.6457 0.449913 -1.68997
upperneck 34.0938 2.71407 -1.18828
head 16.3955 0.973259 0.419123
rclavicle 1.9133e-014 -9.74045e-015
rhumerus -13.6931 2.94212 -84.2756
rradius 41.5096
rwrist -20.2931
rhand -11.4733 -30.3332
rfingers 7.12502
rthumb 14.5645 -59.8019
lclavicle 1.9133e-014 -9.74045e-015
lhumerus -40.1392 11.9435 81.5018
lradius 24.1759
lwrist 2.52521
lhand -17.0818 -9.42357
lfingers 7.12502
lthumb 9.15641 20.3577
rfemur 11.2988 -5.61012 24.1369
rtibia -3.18055e-014
rfoot -11.3724 -1.77328
rtoes 12.1876
lfemur -32.2925 5.64938 -17.2685
ltibia 36.2079
lfoot -15.896 6.70833
ltoes -0.89921
2043
root 16.9297 16.8267 5.37848 1033.13 88.8 1028.73
lowerback -5.37487 3.27963 1.88177
upperback 1.33915 4.22489 0.538065
thorax 4.49142 2.1395 -0.104931
lowerneck -24.4834 0.453571 -1.65056
upperneck 34.0515 2.73132 -1.26844
head 16.3389 0.977038 0.379676
rclavicle 3.62782e-014 6.75868e-015
rhumerus -13.3463 3.18459 -84.3048
rradius 41.8826
rwrist -20.1431
rhand -11.5124 -31.0029
rfingers 7.12502
rthumb 14.5268 -60.4743
lclavicle 3.62782e-014 6.75868e-015
lhumerus -40.4183 12.1604 81.4065
lradius 24.1539
lwrist 2.94698
lhand -17.4612 -9.72673
lfingers 7.12502
lthumb 8.79027 20.0702
rfemur 11.5119 -5.62999 23.8946
rtibia -2.54444e-014
rfoot -11.5749 -1.60685
rtoes 12.419
lfemur -32.7204 4.60204 -17.238
ltibia 34.2379
lfoot -16.4884 6.98203
ltoes -0.89401
2044
root 17.0728 16.8233 5.37989 1039.04 88.6623 1034.41
lowerback -5.59674 3.36642 1.83429
upperback 1.32948 4.34154 0.46074
thorax 4.61156 2.19672 -0.133087
lowerneck -24.5694 0.454237 -1.50026
upperneck 33.9769 2.68271 -1.34081
head 16.3254 0.96302 0.311313
rclavicle -2.86747e-014 1.98785e-016
rhumerus -12.7647 3.30069 -84.406
rradius 42.0426
rwrist -20.023
rhand -11.8253 -30.7736
rfingers 7.12502
rthumb 14.2253 -60.2664
lclavicle -2.86747e-014 1.98785e-016
lhumerus -40.4517 12.2402 81.2374
lradius 24.0261
lwrist 3.12029
lhand -17.57 -9.9485
lfingers 7.12502
lthumb 8.68532 19.8528
rfemur 11.7875 -5.65634 23.8288
rtibia -3.18055e-015
rfoot -11.7281 -1.45381
rtoes 12.8034
lfemur -33.142 3.50044 -16.9229
ltibia 32.5006
lfoot -17.2124 7.38801
ltoes -1.41619
2045
root 17.2162 16.8174 5.38032 1035.53 88.3897 1030.76
lowerback -5.72717 3.40345 2.05347
upperback 1.29202 4.37288 0.44247
thorax 4.66524 2.21824 -0.263051
lowerneck -24.5428 0.498797 -1.2524
upperneck 33.9675 2.65296 -1.38424
head 16.3182 0.977201 0.242949
rclavicle -2.6165e-014 9.93923e-016
rhumerus -12.3382 3.62025 -84.5731
rradius 42.2048
rwrist -20.0063
rhand -12.4223 -30.1635
rfingers 7.12502
rthumb 13.6501 -59.6959
lclavicle -2.6165e-014 9.93923e-016
lhumerus -40.5475 12.2777 80.9668
lradius 23.7769
lwrist 2.99909
lhand -17.6246 -10.1306
lfingers 7.12502
lthumb 8.63266 19.6729
rfemur 12.1616 -5.74017 24.0121
rtibia -2.54444e-014
rfoot -12.064 -1.25391
rtoes 13.0607
lfemur -33.5063 2.27792 -16.2493
ltibia 31.0317
lfoot -18.0501 7.89778
ltoes -1.532
2046
root 17.3546 16.8126 5.37743 1036.06 88.1143 1031.15
lowerback -5.81679 3.41631 2.16925
upperback 1.21623 4.37914 0.464823
thorax 4.64421 2.22361 -0.300733
lowerneck -24.1678 0.575901 -1.24967
upperneck 33.8459 2.71171 -1.26687
head 16.1668 1.02655 0.302644
rclavicle -2.56681e-014 -1.78906e-015
rhumerus -12.0292 4.01532 -84.6896
rradius 42.3669
rwrist -19.871
rhand -12.8777 -29.5228
rfingers 7.12502
rthumb 13.2111 -59.0841
lclavicle -2.56681e-014 -1.78906e-015
lhumerus -40.702 12.4269 80.7495
lradius 23.5574
lwrist 2.87273
lhand -17.7405 -9.95425
lfingers 7.12502
lthumb 8.52073 19.8538
rfemur 12.5341 -5.75098 24.1078
rtibia 2.54444e-014
rfoot -12.3553 -0.973796
rtoes 12.9222
lfemur -33.9318 0.890095 -15.548
ltibia 29.8777
lfoot -19.1562 8.79725
ltoes -1.31375
